<svg viewBox="0 0 327 30" fill="none" xmlns="http://www.w3.org/2000/svg" class="">
<rect width="30" height="30" fill="#7D7195" style="fill: rgb(125, 113, 149);"/>
<path opacity="0.25" d="M23.2559 9.17894C23.8281 9.75114 23.8281 10.6787 23.2559 11.2506L13.4289 21.0779C12.8567 21.6499 11.9294 21.6499 11.3572 21.0779L6.67915 16.3996C6.10695 15.8277 6.10695 14.9001 6.67915 14.3282C7.25107 13.756 8.17862 13.756 8.75053 14.3282L12.3929 17.9706C15.8261 14.5372 21.1843 9.17894 21.1843 9.17894C21.7565 8.60702 22.684 8.60702 23.2559 9.17894Z" fill="white" style="fill: white;"/>
<rect x="33" width="30" height="30" fill="#7D7195" style="fill: rgb(125, 113, 149);"/>
<path opacity="0.25" d="M56.2559 9.17894C56.8281 9.75114 56.8281 10.6787 56.2559 11.2506L46.4289 21.0779C45.8567 21.6499 44.9294 21.6499 44.3572 21.0779L39.6792 16.3996C39.1069 15.8277 39.1069 14.9001 39.6792 14.3282C40.2511 13.756 41.1786 13.756 41.7505 14.3282L45.3929 17.9706C48.8261 14.5372 54.1843 9.17894 54.1843 9.17894C54.7565 8.60702 55.684 8.60702 56.2559 9.17894Z" fill="white" style="fill: white;"/>
<rect x="66" width="30" height="30" fill="#7D7195" style="fill: rgb(125, 113, 149);"/>
<path opacity="0.25" d="M89.2559 9.17894C89.8281 9.75114 89.8281 10.6787 89.2559 11.2506L79.4289 21.0779C78.8567 21.6499 77.9294 21.6499 77.3572 21.0779L72.6792 16.3996C72.1069 15.8277 72.1069 14.9001 72.6792 14.3282C73.2511 13.756 74.1786 13.756 74.7505 14.3282L78.3929 17.9706C81.8261 14.5372 87.1843 9.17894 87.1843 9.17894C87.7565 8.60702 88.684 8.60702 89.2559 9.17894Z" fill="white" style="fill: white;"/>
<rect x="99" width="30" height="30" fill="#7D7195" style="fill: rgb(125, 113, 149);"/>
<path opacity="0.25" d="M122.256 9.17894C122.828 9.75114 122.828 10.6787 122.256 11.2506L112.429 21.0779C111.857 21.6499 110.929 21.6499 110.357 21.0779L105.679 16.3996C105.107 15.8277 105.107 14.9001 105.679 14.3282C106.251 13.756 107.179 13.756 107.751 14.3282L111.393 17.9706C114.826 14.5372 120.184 9.17894 120.184 9.17894C120.756 8.60702 121.684 8.60702 122.256 9.17894Z" fill="white" style="fill: white;"/>
<rect x="132" width="30" height="30" fill="#7D7195" style="fill: rgb(125, 113, 149);"/>
<path opacity="0.25" d="M155.256 9.17894C155.828 9.75114 155.828 10.6787 155.256 11.2506L145.429 21.0779C144.857 21.6499 143.929 21.6499 143.357 21.0779L138.679 16.3996C138.107 15.8277 138.107 14.9001 138.679 14.3282C139.251 13.756 140.179 13.756 140.751 14.3282L144.393 17.9706C147.826 14.5372 153.184 9.17894 153.184 9.17894C153.756 8.60702 154.684 8.60702 155.256 9.17894Z" fill="white" style="fill: white;"/>
<rect x="165" width="30" height="30" fill="#7D7195" style="fill: rgb(125, 113, 149);" class=""/>
<path opacity="0.25" d="M188.256 9.17894C188.828 9.75114 188.828 10.6787 188.256 11.2506L178.429 21.0779C177.857 21.6499 176.929 21.6499 176.357 21.0779L171.679 16.3996C171.107 15.8277 171.107 14.9001 171.679 14.3282C172.251 13.756 173.179 13.756 173.751 14.3282L177.393 17.9706C180.826 14.5372 186.184 9.17894 186.184 9.17894C186.756 8.60702 187.684 8.60702 188.256 9.17894Z" fill="white" style="fill: white;"/>
<rect x="198" width="30" height="30" fill="#7D7195" style="fill: rgb(125, 113, 149);"/>
<path opacity="0.25" d="M221.256 9.17894C221.828 9.75114 221.828 10.6787 221.256 11.2506L211.429 21.0779C210.857 21.6499 209.929 21.6499 209.357 21.0779L204.679 16.3996C204.107 15.8277 204.107 14.9001 204.679 14.3282C205.251 13.756 206.179 13.756 206.751 14.3282L210.393 17.9706C213.826 14.5372 219.184 9.17894 219.184 9.17894C219.756 8.60702 220.684 8.60702 221.256 9.17894Z" fill="white" style="fill: white;"/>
<rect x="231" width="30" height="30" fill="#28D783" style="fill: rgb(40, 215, 131);" class=""/>
<rect x="264" width="30" height="30" fill="#28D783" style="fill: rgb(40, 215, 131);" class=""/>
<rect x="297" width="30" height="30" fill="#28D783" style="fill: rgb(40, 215, 131);"/>
</svg>