<svg xmlns="http://www.w3.org/2000/svg" width="12" height="17" viewBox="0 0 12 17" fill="none" style="filter: drop-shadow(1px 1px 1px #3974ff)">
	<g class="adjustable fg dropShadow" style="fill: #ffffff">
		<path d="M4.6659 8.53115C4.6659 10.9753 4.6659 13.4194 4.6659 15.8635C4.6659 16.3691 4.50132 16.532 3.98965 16.532C3.08674 16.532 2.18424 16.5328 1.28133 16.5315C0.858828 16.5311 0.666328 16.3424 0.666328 15.9263C0.665911 10.9965 0.665911 6.06665 0.666328 1.13721C0.666328 0.719033 0.855911 0.533268 1.28049 0.532851C2.20424 0.532018 3.12757 0.532018 4.05132 0.532851C4.4859 0.533268 4.6659 0.716534 4.66632 1.15762C4.66632 3.61505 4.6659 6.07289 4.6659 8.53115Z"/>
		<path d="M7.33325 8.51015C7.33325 6.06606 7.33325 3.62239 7.33325 1.1783C7.33325 0.711391 7.50908 0.532708 7.96992 0.532708C8.88658 0.532291 9.80325 0.531874 10.7199 0.532708C11.1466 0.533124 11.3332 0.716389 11.3332 1.1379C11.3337 6.06731 11.3337 10.9967 11.3332 15.9266C11.3332 16.3439 11.1416 16.5313 10.7182 16.5317C9.80866 16.5326 8.89867 16.5322 7.98908 16.5317C7.50992 16.5317 7.33325 16.3572 7.33325 15.8832C7.33325 13.4254 7.33325 10.968 7.33325 8.51015Z"/>
	</g>	
</svg>