<svg width="76" height="75" viewBox="0 0 76 75" fill="none" xmlns="http://www.w3.org/2000/svg">
<path d="M62.1559 2.05283H47.4546C46.814 0.833496 45.5348 0 44.0645 0H31.9356C30.4653 0 29.1861 0.833496 28.5455 2.05283H13.8442C10.6163 2.05283 7.99023 4.67886 7.99023 7.90679V69.146C7.99023 72.374 10.6163 75 13.8442 75H62.1561C65.384 75 68.01 72.374 68.01 69.146V7.90679C68.0099 4.67886 65.3838 2.05283 62.1559 2.05283V2.05283ZM31.0387 3.82661C31.0387 3.33208 31.4411 2.92969 31.9356 2.92969H44.0645C44.559 2.92969 44.9614 3.33208 44.9614 3.82661V8.48408H31.0387V3.82661ZM65.0802 69.146C65.0802 70.7584 63.7683 72.0703 62.1559 72.0703H13.8442C12.2318 72.0703 10.9199 70.7584 10.9199 69.146V7.90679C10.9199 6.29443 12.2318 4.98252 13.8442 4.98252H28.109V8.48394H15.8854C15.0764 8.48394 14.4206 9.13975 14.4206 9.94878V67.1039C14.4206 67.9129 15.0764 68.5688 15.8854 68.5688H60.1146C60.9237 68.5688 61.5795 67.9129 61.5795 67.1039V45.6259C61.5795 44.8169 60.9237 44.1611 60.1146 44.1611C59.3056 44.1611 58.6498 44.8169 58.6498 45.6259V65.6392H17.3503V11.4138H58.6498V32.382C58.6498 33.191 59.3056 33.8468 60.1146 33.8468C60.9237 33.8468 61.5795 33.191 61.5795 32.382V9.94893C61.5795 9.13989 60.9237 8.48408 60.1146 8.48408H47.8911V4.98252H62.1559C63.7683 4.98252 65.0802 6.29443 65.0802 7.90679V69.146Z" fill="url(#paint0_linear_54_686)"/>
<path d="M61.4669 38.4697C61.2317 37.9055 60.6529 37.5365 60.041 37.5691C59.4482 37.6008 58.9187 37.997 58.7276 38.56C58.5292 39.1449 58.7285 39.8102 59.2176 40.1881C59.6983 40.5595 60.3716 40.5932 60.8879 40.2738C61.4918 39.9002 61.735 39.1242 61.4669 38.4697Z" fill="url(#paint1_linear_54_686)"/>
<path d="M29.2359 20.1558C24.6149 20.1558 20.8553 23.9153 20.8553 28.5361C20.8553 33.1571 24.6149 36.9167 29.2359 36.9167C33.8569 36.9167 37.6164 33.1571 37.6164 28.5361C37.6164 23.9151 33.8569 20.1558 29.2359 20.1558V20.1558ZM29.2359 33.987C26.2303 33.987 23.785 31.5417 23.785 28.5361C23.785 25.5306 26.2303 23.0854 29.2359 23.0854C32.2414 23.0854 34.6867 25.5306 34.6867 28.5361C34.6867 31.5417 32.2416 33.987 29.2359 33.987V33.987Z" fill="url(#paint2_linear_54_686)"/>
<path d="M29.6132 26.8193L28.8337 27.5872C28.2673 27.2817 27.5451 27.3778 27.0792 27.8656C26.5206 28.4508 26.5421 29.3781 27.1274 29.9366L27.8753 30.6507C28.1586 30.9212 28.5228 31.0561 28.8866 31.0561C29.2584 31.0561 29.6299 30.9154 29.9148 30.6348L31.6692 28.9064C32.2455 28.3386 32.2524 27.4112 31.6846 26.8348C31.1168 26.2586 30.1895 26.2514 29.6132 26.8193Z" fill="url(#paint3_linear_54_686)"/>
<path d="M53.6799 21.8352H42.2354C41.4263 21.8352 40.7705 22.491 40.7705 23.3C40.7705 24.1091 41.4263 24.7649 42.2354 24.7649H53.6799C54.4889 24.7649 55.1447 24.1091 55.1447 23.3C55.1446 22.4912 54.4888 21.8352 53.6799 21.8352Z" fill="url(#paint4_linear_54_686)"/>
<path d="M42.2354 31.0559H50.5382C51.3473 31.0559 52.0031 30.4001 52.0031 29.5911C52.0031 28.782 51.3473 28.1262 50.5382 28.1262H42.2354C41.4263 28.1262 40.7705 28.782 40.7705 29.5911C40.7705 30.4001 41.4263 31.0559 42.2354 31.0559Z" fill="url(#paint5_linear_54_686)"/>
<path d="M29.2359 43.03C24.6149 43.03 20.8553 46.7895 20.8553 51.4104C20.8553 56.0313 24.6149 59.7908 29.2359 59.7908C33.8569 59.7908 37.6164 56.0313 37.6164 51.4104C37.6164 46.7895 33.8569 43.03 29.2359 43.03V43.03ZM29.2359 56.8612C26.2303 56.8612 23.785 54.4161 23.785 51.4105C23.785 48.405 26.2303 45.9599 29.2359 45.9599C32.2414 45.9599 34.6867 48.405 34.6867 51.4105C34.6867 54.4161 32.2416 56.8612 29.2359 56.8612V56.8612Z" fill="url(#paint6_linear_54_686)"/>
<path d="M29.6132 49.6939L28.8337 50.4617C28.2673 50.1563 27.5451 50.2524 27.0792 50.7402C26.5206 51.3254 26.5421 52.2527 27.1274 52.8112L27.8753 53.5253C28.1586 53.7957 28.5228 53.9306 28.8866 53.9306C29.2584 53.9306 29.6299 53.79 29.9148 53.5093L31.6692 51.781C32.2455 51.2132 32.2524 50.2858 31.6846 49.7094C31.1168 49.133 30.1895 49.1259 29.6132 49.6939V49.6939Z" fill="url(#paint7_linear_54_686)"/>
<path d="M53.6799 44.7097H42.2354C41.4263 44.7097 40.7705 45.3655 40.7705 46.1746C40.7705 46.9836 41.4263 47.6394 42.2354 47.6394H53.6799C54.4889 47.6394 55.1447 46.9836 55.1447 46.1746C55.1446 45.3655 54.4888 44.7097 53.6799 44.7097Z" fill="url(#paint8_linear_54_686)"/>
<path d="M50.5381 51.001H42.2352C41.4262 51.001 40.7704 51.6568 40.7704 52.4658C40.7704 53.2749 41.4262 53.9307 42.2352 53.9307H50.5381C51.3471 53.9307 52.003 53.2749 52.003 52.4658C52.003 51.6568 51.3471 51.001 50.5381 51.001Z" fill="url(#paint9_linear_54_686)"/>
<defs>
<linearGradient id="paint0_linear_54_686" x1="-3.22782" y1="120.213" x2="96.0771" y2="110.026" gradientUnits="userSpaceOnUse">
<stop stop-color="#FA70AA"/>
<stop offset="1" stop-color="#40BAFE"/>
</linearGradient>
<linearGradient id="paint1_linear_54_686" x1="58.1052" y1="42.2551" x2="62.9143" y2="41.6389" gradientUnits="userSpaceOnUse">
<stop stop-color="#FA70AA"/>
<stop offset="1" stop-color="#40BAFE"/>
</linearGradient>
<linearGradient id="paint2_linear_54_686" x1="17.7226" y1="47.0207" x2="45.2931" y2="43.4865" gradientUnits="userSpaceOnUse">
<stop stop-color="#FA70AA"/>
<stop offset="1" stop-color="#40BAFE"/>
</linearGradient>
<linearGradient id="paint3_linear_54_686" x1="25.6587" y1="33.8641" x2="34.5422" y2="32.5362" gradientUnits="userSpaceOnUse">
<stop stop-color="#FA70AA"/>
<stop offset="1" stop-color="#40BAFE"/>
</linearGradient>
<linearGradient id="paint4_linear_54_686" x1="38.0839" y1="26.531" x2="55.3048" y2="15.7001" gradientUnits="userSpaceOnUse">
<stop stop-color="#FA70AA"/>
<stop offset="1" stop-color="#40BAFE"/>
</linearGradient>
<linearGradient id="paint5_linear_54_686" x1="38.6711" y1="32.822" x2="53.7975" y2="25.3877" gradientUnits="userSpaceOnUse">
<stop stop-color="#FA70AA"/>
<stop offset="1" stop-color="#40BAFE"/>
</linearGradient>
<linearGradient id="paint6_linear_54_686" x1="17.7226" y1="69.8947" x2="45.2931" y2="66.3605" gradientUnits="userSpaceOnUse">
<stop stop-color="#FA70AA"/>
<stop offset="1" stop-color="#40BAFE"/>
</linearGradient>
<linearGradient id="paint7_linear_54_686" x1="25.6587" y1="56.7388" x2="34.5422" y2="55.4108" gradientUnits="userSpaceOnUse">
<stop stop-color="#FA70AA"/>
<stop offset="1" stop-color="#40BAFE"/>
</linearGradient>
<linearGradient id="paint8_linear_54_686" x1="38.0839" y1="49.4055" x2="55.3048" y2="38.5746" gradientUnits="userSpaceOnUse">
<stop stop-color="#FA70AA"/>
<stop offset="1" stop-color="#40BAFE"/>
</linearGradient>
<linearGradient id="paint9_linear_54_686" x1="38.671" y1="55.6968" x2="53.7974" y2="48.2624" gradientUnits="userSpaceOnUse">
<stop stop-color="#FA70AA"/>
<stop offset="1" stop-color="#40BAFE"/>
</linearGradient>
</defs>
</svg>