<svg width="76" height="75" viewBox="0 0 76 75" fill="none" xmlns="http://www.w3.org/2000/svg">
<g clip-path="url(#clip0_54_679)">
<path d="M13.2 35.1106C6.19722 35.1106 0.5 40.8078 0.5 47.8105C0.5 54.8132 6.19722 60.5105 13.2 60.5105C20.2029 60.5105 25.9001 54.8133 25.9001 47.8105C25.9001 40.8077 20.2027 35.1106 13.2 35.1106ZM13.2 57.5809C7.81265 57.5809 3.42969 53.1979 3.42969 47.8105C3.42969 42.4231 7.81265 38.0401 13.2 38.0401C18.5875 38.0401 22.9704 42.4231 22.9704 47.8105C22.9704 53.1979 18.5875 57.5809 13.2 57.5809Z" fill="url(#paint0_linear_54_679)"/>
<path d="M69.547 57.8385H68.665C72.2463 52.9235 74.1894 47.0045 74.1894 40.8696C74.1894 34.2514 71.8843 27.7802 67.6987 22.6478C63.664 17.7006 58.067 14.1984 51.8999 12.7529C50.7575 11.1519 49.0052 10.0144 46.9853 9.68262V6.7207C46.9853 5.91167 46.3295 5.25586 45.5205 5.25586H28.0297C27.2206 5.25586 26.5648 5.91167 26.5648 6.7207V26.6467H23.9406C23.1315 26.6467 22.4757 27.3025 22.4757 28.1115V34.1984C22.4757 35.0074 23.1315 35.6632 23.9406 35.6632H30.4357V40.2565C30.4357 41.0656 31.0915 41.7214 31.9005 41.7214H41.6495C42.4584 41.7214 43.1143 41.0656 43.1143 40.2565V35.6632H49.6095C50.4183 35.6632 51.0743 35.0074 51.0743 34.1984V28.1115C51.0743 27.3025 50.4183 26.6467 49.6095 26.6467H46.9853V24.5616C48.3011 24.3454 49.5031 23.7876 50.497 22.9824C58.4422 25.2812 63.9355 32.545 63.9355 40.8697C63.9355 48.1894 59.6454 54.8171 52.9801 57.8385H46.0442V55.7225C46.0442 53.5487 44.2757 51.7802 42.1018 51.7802H31.4483C29.2745 51.7802 27.506 53.5487 27.506 55.7225V58.1713C25.1854 58.9844 23.5166 61.1966 23.5166 63.7913C23.5166 67.0737 26.187 69.7441 29.4695 69.7441H42.8873C43.6962 69.7441 44.3521 69.0883 44.3521 68.2793C44.3521 67.4703 43.6962 66.8145 42.8873 66.8145H29.4695C27.8025 66.8145 26.4463 65.4583 26.4463 63.7913C26.4463 62.1243 27.8025 60.7682 29.4695 60.7682H69.5469C71.2138 60.7682 72.5701 62.1243 72.5701 63.7913C72.5701 65.4583 71.2138 66.8145 69.5469 66.8145H56.1312C55.3223 66.8145 54.6664 67.4703 54.6664 68.2793C54.6664 69.0883 55.3223 69.7441 56.1312 69.7441H69.5469C72.8293 69.7441 75.4998 67.0737 75.4998 63.7913C75.4998 60.5089 72.8296 57.8385 69.547 57.8385ZM50.3685 17.1221C50.3685 19.6639 48.3006 21.7317 45.7588 21.7317C43.217 21.7317 41.1492 19.6639 41.1492 17.1221C41.1492 14.5803 43.217 12.5125 45.7588 12.5125C48.3006 12.5125 50.3685 14.5803 50.3685 17.1221ZM40.1848 38.7917H33.3655V35.6632H40.1848V38.7917ZM48.1448 32.7335H25.4054V29.5764H48.1446V32.7335H48.1448ZM29.4945 26.6467V8.1854H44.0558V9.77666C40.7161 10.5507 38.2197 13.5502 38.2197 17.122C38.2197 20.6936 40.7161 23.6931 44.0558 24.4671V26.6465H29.4945V26.6467ZM30.4358 57.8385V55.7225C30.4358 55.1641 30.8901 54.7099 31.4485 54.7099H42.102C42.6602 54.7099 43.1146 55.1641 43.1146 55.7225V57.8385H30.4358ZM58.5944 57.8385C63.739 53.8107 66.8653 47.5925 66.8653 40.8697C66.8653 35.9795 65.2619 31.366 62.2285 27.5281C59.6993 24.3283 56.2869 21.8955 52.4762 20.544C53.0017 19.5166 53.2984 18.3533 53.2984 17.1221C53.2984 16.7971 53.2777 16.4767 53.2376 16.1622C63.8138 19.5691 71.2598 29.5923 71.2598 40.8696C71.2598 47.1187 69.015 53.1192 64.9251 57.8385H58.5944Z" fill="url(#paint1_linear_54_679)"/>
<path d="M50.8892 67.7198C50.6566 67.1525 50.0696 66.7844 49.4579 66.8175C48.8487 66.8505 48.3125 67.2713 48.1353 67.8546C47.9594 68.4335 48.1672 69.0723 48.6452 69.4416C49.134 69.8192 49.8367 69.8411 50.3501 69.4982C50.9233 69.1154 51.1542 68.3559 50.8892 67.7198Z" fill="url(#paint2_linear_54_679)"/>
<path d="M16.6986 44.8009C16.0429 44.3264 15.1274 44.4732 14.6531 45.1285L12.5639 48.015L11.5718 47.0679C10.9866 46.5093 10.0595 46.5307 9.50078 47.116C8.94209 47.7012 8.96362 48.6285 9.54897 49.187L11.7552 51.293C12.0288 51.5544 12.3915 51.6984 12.7665 51.6984C12.8107 51.6984 12.8553 51.6963 12.8998 51.6924C13.3211 51.6538 13.7052 51.4351 13.9532 51.0925L17.0264 46.8465C17.5007 46.191 17.3541 45.2752 16.6986 44.8009Z" fill="url(#paint3_linear_54_679)"/>
</g>
<defs>
<linearGradient id="paint0_linear_54_679" x1="-4.24743" y1="75.8225" x2="37.5336" y2="70.4667" gradientUnits="userSpaceOnUse">
<stop stop-color="#FA70AA"/>
<stop offset="1" stop-color="#40BAFE"/>
</linearGradient>
<linearGradient id="paint1_linear_54_679" x1="12.5652" y1="108.62" x2="100.245" y2="99.3786" gradientUnits="userSpaceOnUse">
<stop stop-color="#FA70AA"/>
<stop offset="1" stop-color="#40BAFE"/>
</linearGradient>
<linearGradient id="paint2_linear_54_679" x1="47.5266" y1="71.5045" x2="52.3383" y2="70.8877" gradientUnits="userSpaceOnUse">
<stop stop-color="#FA70AA"/>
<stop offset="1" stop-color="#40BAFE"/>
</linearGradient>
<linearGradient id="paint3_linear_54_679" x1="7.5611" y1="56.0243" x2="20.9976" y2="54.0538" gradientUnits="userSpaceOnUse">
<stop stop-color="#FA70AA"/>
<stop offset="1" stop-color="#40BAFE"/>
</linearGradient>
<clipPath id="clip0_54_679">
<rect width="75" height="75" fill="white" transform="translate(0.5)"/>
</clipPath>
</defs>
</svg>