<svg width="60" height="75" viewBox="0 0 60 75" fill="none" xmlns="http://www.w3.org/2000/svg">
<path d="M54.4718 62.569V12.431C57.1758 11.7141 59.1744 9.24609 59.1744 6.32007C59.1744 5.91123 59.1348 5.50327 59.0579 5.11069C58.4839 2.14937 55.8742 0 52.8527 0H6.76536C6.75305 0 6.74089 0.000146484 6.72874 0.000439453C6.44324 0.000732422 6.20505 0.00102539 6.17942 0.00161133C3.17737 0.0785156 0.825562 2.49126 0.825562 5.49478V69.5054C0.825562 72.4629 3.23083 74.9272 6.1907 74.9987C6.226 74.9994 6.62385 75.0001 6.6593 75.0001C6.67703 75.0001 6.69475 74.9997 6.71233 74.9991C6.72991 74.9997 6.74763 75.0001 6.76536 75.0001H52.8527C55.8742 75.0001 58.4839 72.8508 59.0572 69.8928C59.1348 69.497 59.1744 69.0891 59.1744 68.6802C59.1744 65.7541 57.1758 63.2861 54.4718 62.569ZM12.0978 2.92969H52.8527C54.4741 2.92969 55.8742 4.08135 56.1824 5.67158C56.2238 5.88223 56.2447 6.10034 56.2447 6.32007C56.2447 8.19023 54.723 9.71147 52.8527 9.71147H12.0977C12.7238 8.73105 13.0867 7.56738 13.0867 6.32065C13.0867 5.07393 12.7238 3.91011 12.0978 2.92969V2.92969ZM56.1817 69.3318C55.8741 70.9187 54.4741 72.0703 52.8526 72.0703H12.0977C12.7235 71.0899 13.0866 69.9261 13.0866 68.6793C13.0866 67.4328 12.7235 66.2689 12.0977 65.2887H33.9337C34.7426 65.2887 35.3985 64.6327 35.3985 63.8238C35.3985 63.0149 34.7426 62.359 33.9337 62.359H6.7658C5.95676 62.359 5.3011 63.0148 5.30095 63.8237C5.30081 64.6326 5.95647 65.2884 6.76536 65.2887C8.63552 65.2893 10.1571 66.8104 10.1571 68.6793C10.1571 70.5489 8.63538 72.07 6.76506 72.0703C6.74734 72.0703 6.72991 72.0708 6.71233 72.0713C6.69475 72.0708 6.67717 72.0703 6.6593 72.0703C6.62883 72.0703 6.30129 72.07 6.25793 72.0696C4.87791 72.0363 3.75525 70.8858 3.75525 69.5052V5.49478C3.75525 4.11943 4.87087 2.97144 6.24285 2.93086C6.30393 2.93057 6.54226 2.93027 6.81414 2.93013C8.66189 2.95679 10.1569 4.46763 10.1569 6.32065C10.1569 8.18994 8.63538 9.71103 6.76521 9.71147C5.95618 9.71177 5.30066 10.3676 5.30081 11.1765C5.30095 11.9854 5.95662 12.6412 6.76565 12.6412H51.5421V62.3588H47.3242C46.5152 62.3588 45.8594 63.0148 45.8594 63.8237C45.8594 64.6326 46.5152 65.2885 47.3242 65.2885H52.8526C54.723 65.2885 56.2446 66.8099 56.2446 68.6799C56.2447 68.8997 56.2239 69.1179 56.1817 69.3318V69.3318Z" fill="url(#paint0_linear_54_737)"/>
<path d="M42.0277 63.2637C41.7962 62.6985 41.2126 62.329 40.6025 62.3616C40.0087 62.3934 39.4803 62.7894 39.2886 63.3529C39.0914 63.9319 39.2872 64.5898 39.7654 64.9704C40.2439 65.3511 40.9292 65.3908 41.4488 65.0678C42.0489 64.6945 42.2998 63.9163 42.0277 63.2637Z" fill="url(#paint1_linear_54_737)"/>
<path d="M28.5351 46.1957C36.6518 46.1957 43.2552 39.5924 43.2552 31.4757C43.2552 23.359 36.6518 16.7556 28.5351 16.7556C20.4184 16.7556 13.8151 23.359 13.8151 31.4757C13.8151 39.5924 20.4184 46.1957 28.5351 46.1957ZM28.5351 19.6853C35.0364 19.6853 40.3255 24.9744 40.3255 31.4757C40.3255 37.9769 35.0364 43.2661 28.5351 43.2661C22.0339 43.2661 16.7448 37.9769 16.7448 31.4757C16.7448 24.9744 22.0339 19.6853 28.5351 19.6853Z" fill="url(#paint2_linear_54_737)"/>
<path d="M23.3575 33.7988L23.1807 37.4286C23.1567 37.9227 23.3836 38.3957 23.7842 38.6858C24.1847 38.9763 24.7049 39.0447 25.1669 38.8681L28.5351 37.5808L31.9034 38.8682C32.0727 38.933 32.25 38.9647 32.4262 38.9647C32.7306 38.9647 33.0324 38.8698 33.2859 38.686C33.6866 38.3957 33.9135 37.9228 33.8894 37.4287L33.7126 33.799L35.9754 30.968C36.2833 30.5829 36.3766 30.0686 36.224 29.5999C36.0712 29.131 35.6928 28.7705 35.2172 28.6404L31.738 27.6898L29.763 24.6528C29.4927 24.2372 29.0307 23.9866 28.535 23.9866C28.0393 23.9866 27.5773 24.2374 27.307 24.6529L25.3321 27.6898L21.8528 28.6404C21.3772 28.7705 20.9988 29.131 20.846 29.5999C20.6934 30.0686 20.7868 30.5829 21.0946 30.968L23.3575 33.7988ZM26.6423 30.3688C26.9887 30.2741 27.2884 30.0553 27.4841 29.7542L28.5351 28.1382L29.5863 29.7544C29.7822 30.0556 30.0817 30.2741 30.4282 30.3688L32.296 30.8791L31.0786 32.4022C30.8556 32.6809 30.7424 33.0315 30.7597 33.3879L30.8543 35.3305L29.0582 34.6439C28.8899 34.5796 28.7127 34.5474 28.5353 34.5474C28.3579 34.5474 28.1807 34.5796 28.0123 34.6439L26.2163 35.3305L26.3109 33.3879C26.3282 33.0314 26.215 32.6809 25.992 32.4022L24.7746 30.8791L26.6423 30.3688Z" fill="url(#paint3_linear_54_737)"/>
<path d="M42.163 51.9707H15.2799C14.471 51.9707 13.8151 52.6265 13.8151 53.4355C13.8151 54.2444 14.471 54.9004 15.2799 54.9004H42.1632C42.972 54.9004 43.628 54.2444 43.628 53.4355C43.6279 52.6267 42.972 51.9707 42.163 51.9707Z" fill="url(#paint4_linear_54_737)"/>
<defs>
<linearGradient id="paint0_linear_54_737" x1="-10.0802" y1="120.213" x2="86.5153" y2="110.58" gradientUnits="userSpaceOnUse">
<stop stop-color="#FA70AA"/>
<stop offset="1" stop-color="#40BAFE"/>
</linearGradient>
<linearGradient id="paint1_linear_54_737" x1="38.6659" y1="67.0493" x2="43.4767" y2="66.4328" gradientUnits="userSpaceOnUse">
<stop stop-color="#FA70AA"/>
<stop offset="1" stop-color="#40BAFE"/>
</linearGradient>
<linearGradient id="paint2_linear_54_737" x1="8.31253" y1="63.9433" x2="56.7391" y2="57.7356" gradientUnits="userSpaceOnUse">
<stop stop-color="#FA70AA"/>
<stop offset="1" stop-color="#40BAFE"/>
</linearGradient>
<linearGradient id="paint3_linear_54_737" x1="17.8729" y1="47.9941" x2="43.3747" y2="44.6064" gradientUnits="userSpaceOnUse">
<stop stop-color="#FA70AA"/>
<stop offset="1" stop-color="#40BAFE"/>
</linearGradient>
<linearGradient id="paint4_linear_54_737" x1="8.24285" y1="56.6665" x2="26.6932" y2="32.5988" gradientUnits="userSpaceOnUse">
<stop stop-color="#FA70AA"/>
<stop offset="1" stop-color="#40BAFE"/>
</linearGradient>
</defs>
</svg>