<svg width="120" height="50" viewBox="0 0 120 50" fill="none" xmlns="http://www.w3.org/2000/svg">
<path d="M23.6677 0H31.2498L18.542 34.1526H12.7786L0 0H7.70029L15.6839 22.3396L23.6677 0ZM48.2799 12.4082L40.7689 0H32.0057L44.5953 19.7198V34.1526H51.7994V19.7198L64.1292 0H55.7676L48.2799 12.4082ZM80.6162 22.3396L72.6326 0.000122373H64.9322L77.7108 34.1528H83.4743L96.182 0.000122373H88.5999L80.6162 22.3396ZM119.873 6.93048V0H99.1346V34.1526H119.873V27.2221H106.291V20.0057H118.385V13.0752H106.291V6.93061H119.873V6.93048Z" fill="url(#paint0_linear_43_578)"/>
<path d="M25.1972 44.5679H26.114L24.3649 49.8776H23.6423L22.4026 46.0393L21.1669 49.8776H20.4372L18.6732 44.5679H19.6119L20.8111 48.4172L22.0508 44.5679H22.7804L23.998 48.4172L25.1972 44.5679Z" fill="#47525E"/>
<path d="M33.0739 44.5752H36.1762V45.4256H33.954V46.6754H35.9343V47.5222H33.954V49.031H36.1762V49.8778H33.0739V44.5752Z" fill="#47525E"/>
<path d="M43.3779 44.5752H44.2581V49.031H46.774V49.8778H43.3781V44.5752H43.3779Z" fill="#47525E"/>
<path d="M53.8619 44.5752H54.7421V49.031H57.258V49.8778H53.8622V44.5752H53.8619Z" fill="#47525E"/>
<path d="M64.3459 44.5752H65.1123L67.5986 48.1657V44.5752H68.486V49.8778H67.727L65.2258 46.2873V49.8778H64.3457V44.5752H64.3459Z" fill="#47525E"/>
<path d="M75.8275 44.5752H78.9299V45.4256H76.7074V46.6754H78.6878V47.5222H76.7074V49.031H78.9299V49.8778H75.8275V44.5752Z" fill="#47525E"/>
<path d="M87.936 49.9519C87.3712 49.9519 86.9041 49.7837 86.5351 49.4471C86.1661 49.1106 85.9814 48.6837 85.9814 48.166H86.8543C86.8543 48.4495 86.955 48.6794 87.1568 48.8556C87.3583 49.0318 87.6181 49.1201 87.936 49.1201C88.2344 49.1201 88.4776 49.0504 88.6657 48.911C88.8539 48.7718 88.9482 48.5913 88.9482 48.3692C88.9482 48.2437 88.9151 48.1339 88.8492 48.0404C88.7831 47.9467 88.6946 47.8707 88.5832 47.8129C88.472 47.7551 88.3437 47.7036 88.1983 47.6595C88.0528 47.6149 87.8999 47.572 87.7398 47.53C87.5797 47.488 87.4195 47.4439 87.2594 47.3967C87.0992 47.35 86.9466 47.2885 86.8011 47.2119C86.6555 47.1354 86.5271 47.0469 86.4159 46.9456C86.3045 46.8448 86.2161 46.7134 86.15 46.5519C86.0841 46.3904 86.051 46.206 86.051 45.9991C86.051 45.5629 86.2184 45.2041 86.5535 44.9229C86.8884 44.6422 87.3137 44.5015 87.8297 44.5015C88.123 44.5015 88.3877 44.5458 88.6236 44.6346C88.8595 44.7233 89.0514 44.8448 89.1995 44.9989C89.3475 45.153 89.4604 45.3292 89.5387 45.5277C89.6169 45.7261 89.6562 45.9387 89.6562 46.1655H88.7539C88.7466 45.924 88.656 45.7261 88.4826 45.572C88.3089 45.4179 88.0816 45.3409 87.8003 45.3409C87.5339 45.3409 87.3193 45.4006 87.1568 45.5203C86.994 45.64 86.9129 45.7969 86.9129 45.9917C86.9129 46.1101 86.946 46.2119 87.0119 46.2967C87.078 46.3818 87.1671 46.4504 87.2795 46.5021C87.392 46.5538 87.5211 46.6006 87.6664 46.6426C87.8119 46.6844 87.9648 46.7253 88.1249 46.7647C88.2851 46.8041 88.4461 46.8478 88.6073 46.8961C88.7687 46.9439 88.922 47.008 89.0675 47.088C89.2129 47.1681 89.3419 47.2621 89.4544 47.3692C89.5669 47.4766 89.6561 47.6149 89.7221 47.7852C89.7882 47.9551 89.821 48.1499 89.821 48.3692C89.821 48.6703 89.7399 48.9413 89.5772 49.1829C89.4146 49.4244 89.1897 49.6132 88.9024 49.7487C88.615 49.8841 88.293 49.9519 87.936 49.9519Z" fill="#47525E"/>
<path d="M98.7866 49.9519C98.2218 49.9519 97.7549 49.7837 97.3856 49.4471C97.0164 49.1106 96.8318 48.6837 96.8318 48.166H97.7046C97.7046 48.4495 97.8055 48.6794 98.0073 48.8556C98.2089 49.0318 98.4686 49.1201 98.7866 49.1201C99.0847 49.1201 99.328 49.0504 99.5162 48.911C99.7045 48.7718 99.7987 48.5913 99.7987 48.3692C99.7987 48.2437 99.7657 48.1339 99.6998 48.0404C99.6336 47.9467 99.545 47.8707 99.4338 47.8129C99.3224 47.7551 99.194 47.7036 99.0487 47.6595C98.9033 47.6149 98.7505 47.572 98.5904 47.53C98.4302 47.488 98.2701 47.4439 98.1099 47.3967C97.9498 47.35 97.7969 47.2885 97.6516 47.2119C97.5061 47.1354 97.3777 47.0469 97.2665 46.9456C97.1551 46.8448 97.0666 46.7134 97.0005 46.5519C96.9344 46.3904 96.9016 46.206 96.9016 45.9991C96.9016 45.5629 97.069 45.2041 97.4039 44.9229C97.7388 44.6422 98.1642 44.5015 98.6803 44.5015C98.9735 44.5015 99.2382 44.5458 99.4741 44.6346C99.7101 44.7233 99.902 44.8448 100.05 44.9989C100.198 45.153 100.311 45.3292 100.389 45.5277C100.467 45.7261 100.506 45.9387 100.506 46.1655H99.6045C99.5969 45.924 99.5066 45.7261 99.3331 45.572C99.1594 45.4179 98.9321 45.3409 98.6509 45.3409C98.3845 45.3409 98.17 45.4006 98.0073 45.5203C97.8448 45.64 97.7635 45.7969 97.7635 45.9917C97.7635 46.1101 97.7965 46.2119 97.8624 46.2967C97.9285 46.3818 98.0176 46.4504 98.1303 46.5021C98.2426 46.5538 98.3716 46.6006 98.5172 46.6426C98.6627 46.6844 98.8153 46.7253 98.9757 46.7647C99.1356 46.8041 99.2966 46.8478 99.4578 46.8961C99.6193 46.9439 99.7725 47.008 99.9181 47.088C100.064 47.1681 100.192 47.2621 100.305 47.3692C100.417 47.4766 100.507 47.6149 100.573 47.7852C100.639 47.9551 100.672 48.1499 100.672 48.3692C100.672 48.6703 100.59 48.9413 100.428 49.1829C100.265 49.4244 100.04 49.6132 99.753 49.7487C99.4656 49.8841 99.1436 49.9519 98.7866 49.9519Z" fill="#47525E"/>
<defs>
<linearGradient id="paint0_linear_43_578" x1="-22.405" y1="54.7413" x2="144.275" y2="-20.2525" gradientUnits="userSpaceOnUse">
<stop stop-color="#FA70AA"/>
<stop offset="1" stop-color="#40BAFE"/>
</linearGradient>
</defs>
</svg>