<svg xmlns="http://www.w3.org/2000/svg" width="22" height="20" viewBox="0 0 22 20" fill="none" style="filter: drop-shadow(1px 1px 1px #3974ff)">
    <g class="adjustable fg dropShadow with-strokes">
        <path class="add-stroke" d="M5.67318 7.10751H1.58228V3.0166" stroke-width="1.5" stroke-linecap="round" stroke-linejoin="round" style="stroke: #ffffff"/>
        <path class="add-stroke" d="M5.05353 16.364C6.3122 17.6226 7.91585 18.4798 9.66168 18.8271C11.4075 19.1743 13.2171 18.9961 14.8616 18.3149C16.5062 17.6337 17.9118 16.4802 18.9007 15.0001C19.8897 13.5201 20.4175 11.78 20.4175 10C20.4175 8.21997 19.8897 6.47992 18.9007 4.99987C17.9118 3.51983 16.5062 2.36628 14.8616 1.68509C13.2171 1.0039 11.4075 0.82567 9.66168 1.17294C7.91585 1.5202 6.3122 2.37737 5.05353 3.63604L1.58228 7.1073" stroke-width="1.5" stroke-linecap="round" stroke-linejoin="round" style="stroke: #ffffff"/>
        <path class="add-fill" d="M10.3723 13H9.16528V9.69531L9.177 9.15234L9.19653 8.55859C8.99601 8.75911 8.85669 8.89062 8.77856 8.95312L8.12231 9.48047L7.54028 8.75391L9.38013 7.28906H10.3723V13Z" style="fill: #ffffff"/>
        <path class="add-fill" d="M15.9192 10.1445C15.9192 11.1419 15.7551 11.8802 15.427 12.3594C15.1015 12.8385 14.5989 13.0781 13.9192 13.0781C13.2603 13.0781 12.7629 12.8307 12.427 12.3359C12.0937 11.8411 11.927 11.1107 11.927 10.1445C11.927 9.13672 12.0898 8.39453 12.4153 7.91797C12.7408 7.4388 13.2421 7.19922 13.9192 7.19922C14.578 7.19922 15.0754 7.44922 15.4114 7.94922C15.7499 8.44922 15.9192 9.18099 15.9192 10.1445ZM13.1262 10.1445C13.1262 10.8451 13.1861 11.3477 13.3059 11.6523C13.4283 11.9544 13.6327 12.1055 13.9192 12.1055C14.2004 12.1055 14.4036 11.9518 14.5286 11.6445C14.6536 11.3372 14.7161 10.8372 14.7161 10.1445C14.7161 9.44401 14.6523 8.94141 14.5247 8.63672C14.3997 8.32943 14.1978 8.17578 13.9192 8.17578C13.6353 8.17578 13.4322 8.32943 13.3098 8.63672C13.1874 8.94141 13.1262 9.44401 13.1262 10.1445Z" style="fill: #ffffff"/>
    </g>
</svg>