<svg width="543" height="71" viewBox="0 0 543 71" fill="none" xmlns="http://www.w3.org/2000/svg">
<rect width="543" height="71" rx="5" fill="#F4F4FA"/>
<circle cx="52" cy="35" r="20" fill="#FA70AA"/>
<path d="M87.0049 41.1758C85.8037 41.1758 84.7139 40.8945 83.7354 40.332C82.7627 39.7695 81.998 38.9932 81.4414 38.0029C80.8906 37.0127 80.6152 35.9111 80.6152 34.6982C80.6152 33.4854 80.8906 32.3838 81.4414 31.3936C81.998 30.4033 82.7627 29.627 83.7354 29.0645C84.7139 28.502 85.8037 28.2207 87.0049 28.2207C87.9834 28.2207 88.9092 28.4199 89.7822 28.8184C90.6553 29.2109 91.3789 29.7617 91.9531 30.4707C92.5332 31.1738 92.8818 31.959 92.999 32.8262H90.0283C89.8584 32.2344 89.4922 31.751 88.9297 31.376C88.373 31.001 87.7314 30.8135 87.0049 30.8135C85.9678 30.8135 85.0977 31.1855 84.3945 31.9297C83.6973 32.668 83.3486 33.5908 83.3486 34.6982C83.3486 35.8057 83.6973 36.7314 84.3945 37.4756C85.0977 38.2197 85.9678 38.5918 87.0049 38.5918C87.7373 38.5918 88.3848 38.3867 88.9473 37.9766C89.5156 37.5664 89.8818 37.0449 90.0459 36.4121H93.0342C92.7939 37.8125 92.1113 38.958 90.9863 39.8486C89.8672 40.7334 88.54 41.1758 87.0049 41.1758ZM98.6504 31.9824C99.2891 31.9824 99.8896 32.0996 100.452 32.334C101.021 32.5684 101.507 32.8906 101.911 33.3008C102.321 33.7051 102.644 34.1943 102.878 34.7686C103.118 35.3369 103.238 35.9434 103.238 36.5879C103.238 37.4492 103.036 38.2314 102.632 38.9346C102.233 39.6377 101.683 40.1885 100.979 40.5869C100.282 40.9795 99.5059 41.1758 98.6504 41.1758C97.3438 41.1758 96.251 40.7393 95.3721 39.8662C94.4932 38.9932 94.0537 37.9004 94.0537 36.5879C94.0537 35.2754 94.4932 34.1797 95.3721 33.3008C96.251 32.4219 97.3438 31.9824 98.6504 31.9824ZM98.6504 34.4082C98.0469 34.4082 97.543 34.6162 97.1387 35.0322C96.7402 35.4424 96.541 35.9609 96.541 36.5879C96.541 37.1973 96.7402 37.71 97.1387 38.126C97.543 38.542 98.0469 38.75 98.6504 38.75C99.2422 38.75 99.7402 38.542 100.145 38.126C100.549 37.71 100.751 37.1973 100.751 36.5879C100.751 35.9609 100.549 35.4424 100.145 35.0322C99.7461 34.6162 99.248 34.4082 98.6504 34.4082ZM109.602 31.9824C110.732 31.9824 111.62 32.3398 112.265 33.0547C112.909 33.7637 113.231 34.7451 113.231 35.999V41H110.691V36.3242C110.691 35.75 110.53 35.2871 110.208 34.9355C109.892 34.584 109.473 34.4082 108.951 34.4082C108.424 34.4082 107.999 34.584 107.677 34.9355C107.36 35.2812 107.202 35.7441 107.202 36.3242V41H104.662V32.1582H107.202V33.3184C107.788 32.4277 108.588 31.9824 109.602 31.9824ZM120.351 34.5752H118.18V37.3613C118.18 37.8184 118.317 38.1611 118.593 38.3896C118.874 38.6182 119.246 38.7324 119.709 38.7324C119.955 38.7324 120.169 38.709 120.351 38.6621V41C119.987 41.0938 119.58 41.1406 119.129 41.1406C118.068 41.1406 117.222 40.8096 116.589 40.1475C115.956 39.4854 115.64 38.5684 115.64 37.3965V34.5752H113.996V32.1582H115.64V29.8379H118.18V32.1582H120.351V34.5752ZM127.9 32.1582H130.44V41H127.9V39.7432C127.256 40.6982 126.318 41.1758 125.088 41.1758C124.338 41.1758 123.646 40.9707 123.014 40.5605C122.387 40.1445 121.892 39.585 121.528 38.8818C121.165 38.1729 120.983 37.4023 120.983 36.5703C120.983 35.7383 121.165 34.9707 121.528 34.2676C121.892 33.5586 122.387 33.002 123.014 32.5977C123.646 32.1875 124.338 31.9824 125.088 31.9824C126.318 31.9824 127.256 32.4629 127.9 33.4238V32.1582ZM125.686 38.75C126.307 38.75 126.831 38.542 127.259 38.126C127.687 37.7041 127.9 37.1855 127.9 36.5703C127.9 35.9609 127.687 35.4453 127.259 35.0234C126.831 34.6016 126.307 34.3906 125.686 34.3906C125.076 34.3906 124.555 34.6045 124.121 35.0322C123.688 35.4541 123.471 35.9668 123.471 36.5703C123.471 37.1797 123.685 37.6953 124.112 38.1172C124.546 38.5391 125.07 38.75 125.686 38.75ZM136.426 41.1758C135.119 41.1758 134.026 40.7393 133.147 39.8662C132.269 38.9932 131.829 37.9004 131.829 36.5879C131.829 35.2754 132.269 34.1797 133.147 33.3008C134.026 32.4219 135.119 31.9824 136.426 31.9824C137.533 31.9824 138.5 32.3193 139.326 32.9932C140.152 33.667 140.624 34.5107 140.741 35.5244H138.166C138.078 35.1963 137.87 34.9297 137.542 34.7246C137.22 34.5137 136.848 34.4082 136.426 34.4082C135.822 34.4082 135.318 34.6162 134.914 35.0322C134.516 35.4424 134.316 35.9609 134.316 36.5879C134.316 37.1973 134.516 37.71 134.914 38.126C135.318 38.542 135.822 38.75 136.426 38.75C136.848 38.75 137.223 38.6387 137.551 38.416C137.885 38.1934 138.096 37.9092 138.184 37.5635H140.759C140.694 38.2549 140.46 38.8789 140.056 39.4355C139.651 39.9863 139.13 40.4141 138.491 40.7188C137.858 41.0234 137.17 41.1758 136.426 41.1758ZM147.808 34.5752H145.637V37.3613C145.637 37.8184 145.774 38.1611 146.05 38.3896C146.331 38.6182 146.703 38.7324 147.166 38.7324C147.412 38.7324 147.626 38.709 147.808 38.6621V41C147.444 41.0938 147.037 41.1406 146.586 41.1406C145.525 41.1406 144.679 40.8096 144.046 40.1475C143.413 39.4854 143.097 38.5684 143.097 37.3965V34.5752H141.453V32.1582H143.097V29.8379H145.637V32.1582H147.808V34.5752ZM157.256 28.3965C158.451 28.3965 159.535 28.666 160.508 29.2051C161.486 29.7441 162.254 30.4912 162.811 31.4463C163.367 32.4014 163.646 33.4678 163.646 34.6455C163.646 35.8467 163.367 36.9336 162.811 37.9062C162.254 38.873 161.486 39.6318 160.508 40.1826C159.535 40.7275 158.451 41 157.256 41H152.94V28.3965H157.256ZM157.44 38.4424C158.437 38.4424 159.26 38.082 159.91 37.3613C160.566 36.6406 160.895 35.7354 160.895 34.6455C160.895 33.5732 160.569 32.6914 159.919 32C159.274 31.3027 158.448 30.9541 157.44 30.9541H155.604V38.4424H157.44ZM173.612 36.2803C173.612 36.5908 173.595 36.8926 173.56 37.1855H166.994C167.082 37.7598 167.331 38.2197 167.741 38.5654C168.151 38.9053 168.652 39.0752 169.244 39.0752C169.73 39.0752 170.126 38.9814 170.431 38.7939C170.741 38.6006 170.932 38.3457 171.002 38.0293H173.489C173.343 38.9785 172.889 39.7402 172.127 40.3145C171.365 40.8887 170.428 41.1758 169.314 41.1758C168.459 41.1758 167.674 40.9736 166.959 40.5693C166.25 40.1592 165.69 39.5996 165.28 38.8906C164.87 38.1758 164.665 37.3906 164.665 36.5352C164.665 35.252 165.107 34.1738 165.992 33.3008C166.883 32.4219 167.973 31.9824 169.262 31.9824C170.047 31.9824 170.773 32.1699 171.441 32.5449C172.109 32.9199 172.637 33.4385 173.023 34.1006C173.416 34.7627 173.612 35.4893 173.612 36.2803ZM167.117 35.5684H170.967C170.932 35.1289 170.738 34.7627 170.387 34.4697C170.035 34.1768 169.622 34.0303 169.147 34.0303C168.649 34.0303 168.225 34.1592 167.873 34.417C167.521 34.6748 167.27 35.0586 167.117 35.5684ZM180.45 34.5752H178.279V37.3613C178.279 37.8184 178.417 38.1611 178.692 38.3896C178.974 38.6182 179.346 38.7324 179.809 38.7324C180.055 38.7324 180.269 38.709 180.45 38.6621V41C180.087 41.0938 179.68 41.1406 179.229 41.1406C178.168 41.1406 177.321 40.8096 176.688 40.1475C176.056 39.4854 175.739 38.5684 175.739 37.3965V34.5752H174.096V32.1582H175.739V29.8379H178.279V32.1582H180.45V34.5752ZM188 32.1582H190.54V41H188V39.7432C187.355 40.6982 186.418 41.1758 185.188 41.1758C184.438 41.1758 183.746 40.9707 183.113 40.5605C182.486 40.1445 181.991 39.585 181.628 38.8818C181.265 38.1729 181.083 37.4023 181.083 36.5703C181.083 35.7383 181.265 34.9707 181.628 34.2676C181.991 33.5586 182.486 33.002 183.113 32.5977C183.746 32.1875 184.438 31.9824 185.188 31.9824C186.418 31.9824 187.355 32.4629 188 33.4238V32.1582ZM185.785 38.75C186.406 38.75 186.931 38.542 187.358 38.126C187.786 37.7041 188 37.1855 188 36.5703C188 35.9609 187.786 35.4453 187.358 35.0234C186.931 34.6016 186.406 34.3906 185.785 34.3906C185.176 34.3906 184.654 34.6045 184.221 35.0322C183.787 35.4541 183.57 35.9668 183.57 36.5703C183.57 37.1797 183.784 37.6953 184.212 38.1172C184.646 38.5391 185.17 38.75 185.785 38.75ZM192.482 28.335C192.787 28.0303 193.15 27.8779 193.572 27.8779C193.994 27.8779 194.357 28.0303 194.662 28.335C194.967 28.6338 195.119 28.9912 195.119 29.4072C195.119 29.8291 194.967 30.1924 194.662 30.4971C194.357 30.8018 193.994 30.9541 193.572 30.9541C193.15 30.9541 192.787 30.8018 192.482 30.4971C192.178 30.1924 192.025 29.8291 192.025 29.4072C192.025 28.9912 192.178 28.6338 192.482 28.335ZM192.307 32.1582H194.847V41H192.307V32.1582ZM199.329 28.3965V41H196.789V28.3965H199.329ZM204.717 41.1758C203.551 41.1758 202.599 40.8975 201.86 40.3408C201.128 39.7783 200.718 39.002 200.63 38.0117H203.064C203.088 38.3105 203.243 38.5508 203.53 38.7324C203.817 38.9141 204.172 39.0049 204.594 39.0049C204.969 39.0049 205.259 38.9463 205.464 38.8291C205.675 38.7119 205.78 38.5479 205.78 38.3369C205.78 38.1436 205.689 37.9854 205.508 37.8623C205.326 37.7393 205.089 37.6484 204.796 37.5898C204.503 37.5254 204.178 37.4639 203.82 37.4053C203.469 37.3467 203.117 37.2646 202.766 37.1592C202.414 37.0537 202.092 36.9189 201.799 36.7549C201.506 36.5908 201.269 36.3506 201.087 36.0342C200.905 35.7119 200.814 35.3281 200.814 34.8828C200.814 34.0449 201.131 33.3535 201.764 32.8086C202.402 32.2578 203.255 31.9824 204.321 31.9824C205.329 31.9824 206.193 32.2402 206.914 32.7559C207.635 33.2715 208.048 33.998 208.153 34.9355H205.596C205.578 34.7012 205.449 34.502 205.209 34.3379C204.969 34.1738 204.655 34.0918 204.269 34.0918C203.964 34.0918 203.718 34.1445 203.53 34.25C203.349 34.3496 203.258 34.499 203.258 34.6982C203.258 34.8799 203.349 35.0264 203.53 35.1377C203.718 35.2432 203.958 35.3223 204.251 35.375C204.544 35.4277 204.866 35.4805 205.218 35.5332C205.569 35.5859 205.921 35.668 206.272 35.7793C206.63 35.8906 206.955 36.04 207.248 36.2275C207.541 36.4092 207.778 36.6787 207.96 37.0361C208.147 37.3936 208.241 37.8213 208.241 38.3193C208.241 39.1279 207.901 39.8076 207.222 40.3584C206.548 40.9033 205.713 41.1758 204.717 41.1758Z" fill="#FA70AA"/>
<path d="M54.2666 27.5957V43H52.5908V29.8838L49.0459 32.9238V30.8828L53.0527 27.5957H54.2666Z" fill="white"/>
<circle cx="358" cy="35" r="19.5" stroke="#8793B0"/>
<path d="M387.424 40V27.3965H391.792C392.776 27.3965 393.617 27.707 394.314 28.3281C395.012 28.9434 395.36 29.6846 395.36 30.5518C395.36 31.2256 395.155 31.8291 394.745 32.3623C394.335 32.8955 393.825 33.2207 393.216 33.3379C394.007 33.4199 394.672 33.7656 395.211 34.375C395.756 34.9844 396.028 35.7021 396.028 36.5283C396.028 37.4951 395.668 38.3154 394.947 38.9893C394.232 39.6631 393.362 40 392.337 40H387.424ZM388.769 32.8896H391.757C392.378 32.8896 392.905 32.6816 393.339 32.2656C393.772 31.8438 393.989 31.3311 393.989 30.7275C393.989 30.165 393.77 29.6875 393.33 29.2949C392.896 28.8965 392.372 28.6973 391.757 28.6973H388.769V32.8896ZM388.769 38.708H392.267C392.946 38.708 393.512 38.4824 393.963 38.0312C394.414 37.5801 394.64 37.0234 394.64 36.3613C394.64 35.7051 394.411 35.1514 393.954 34.7002C393.503 34.249 392.946 34.0234 392.284 34.0234H388.769V38.708ZM398.674 32.3887C399.547 31.5098 400.619 31.0703 401.891 31.0703C403.162 31.0703 404.234 31.5098 405.107 32.3887C405.986 33.2617 406.426 34.3398 406.426 35.623C406.426 36.9062 405.986 37.9873 405.107 38.8662C404.234 39.7393 403.162 40.1758 401.891 40.1758C400.619 40.1758 399.547 39.7393 398.674 38.8662C397.807 37.9873 397.373 36.9062 397.373 35.623C397.373 34.3398 397.807 33.2617 398.674 32.3887ZM401.891 32.3184C400.982 32.3184 400.218 32.6348 399.597 33.2676C398.976 33.9004 398.665 34.6855 398.665 35.623C398.665 36.5547 398.976 37.3398 399.597 37.9785C400.218 38.6172 400.982 38.9365 401.891 38.9365C402.799 38.9365 403.566 38.6172 404.193 37.9785C404.82 37.334 405.134 36.5488 405.134 35.623C405.134 34.6914 404.82 33.9092 404.193 33.2764C403.572 32.6377 402.805 32.3184 401.891 32.3184ZM408.922 32.3887C409.795 31.5098 410.867 31.0703 412.139 31.0703C413.41 31.0703 414.482 31.5098 415.355 32.3887C416.234 33.2617 416.674 34.3398 416.674 35.623C416.674 36.9062 416.234 37.9873 415.355 38.8662C414.482 39.7393 413.41 40.1758 412.139 40.1758C410.867 40.1758 409.795 39.7393 408.922 38.8662C408.055 37.9873 407.621 36.9062 407.621 35.623C407.621 34.3398 408.055 33.2617 408.922 32.3887ZM412.139 32.3184C411.23 32.3184 410.466 32.6348 409.845 33.2676C409.224 33.9004 408.913 34.6855 408.913 35.623C408.913 36.5547 409.224 37.3398 409.845 37.9785C410.466 38.6172 411.23 38.9365 412.139 38.9365C413.047 38.9365 413.814 38.6172 414.441 37.9785C415.068 37.334 415.382 36.5488 415.382 35.623C415.382 34.6914 415.068 33.9092 414.441 33.2764C413.82 32.6377 413.053 32.3184 412.139 32.3184ZM426.104 40H424.364L419.935 35.7197V40H418.616V27.3965H419.935V35.1572L424.162 31.2549H425.823L421.262 35.4297L426.104 40ZM428.091 27.4316C428.343 27.4316 428.565 27.5254 428.759 27.7129C428.952 27.9004 429.049 28.1201 429.049 28.3721C429.049 28.6299 428.952 28.8555 428.759 29.0488C428.565 29.2363 428.343 29.3301 428.091 29.3301C427.833 29.3301 427.613 29.2363 427.432 29.0488C427.25 28.8613 427.159 28.6357 427.159 28.3721C427.159 28.1201 427.25 27.9004 427.432 27.7129C427.613 27.5254 427.833 27.4316 428.091 27.4316ZM427.423 31.2549H428.741V40H427.423V31.2549ZM435.562 31.0703C436.692 31.0703 437.589 31.4219 438.251 32.125C438.919 32.8223 439.253 33.7686 439.253 34.9639V40H437.935V35.0869C437.935 34.249 437.691 33.5781 437.205 33.0742C436.725 32.5703 436.086 32.3184 435.289 32.3184C434.469 32.3184 433.81 32.5732 433.312 33.083C432.819 33.5869 432.573 34.2549 432.573 35.0869V40H431.255V31.2549H432.573V32.96C432.854 32.3623 433.253 31.8994 433.769 31.5713C434.284 31.2373 434.882 31.0703 435.562 31.0703ZM449.149 31.2373H450.468V39.7275C450.468 40.9287 450.061 41.8955 449.246 42.6279C448.432 43.3604 447.386 43.7266 446.108 43.7266C445.604 43.7266 445.115 43.6621 444.641 43.5332C444.166 43.4102 443.724 43.2285 443.313 42.9883C442.909 42.748 442.578 42.4229 442.32 42.0127C442.068 41.6084 441.934 41.1484 441.916 40.6328H443.19C443.208 41.2305 443.492 41.708 444.043 42.0654C444.594 42.4287 445.271 42.6104 446.073 42.6104C446.964 42.6104 447.699 42.3467 448.279 41.8193C448.859 41.2979 449.149 40.6182 449.149 39.7803V37.8555C448.827 38.5469 448.358 39.083 447.743 39.4639C447.134 39.8447 446.416 40.0352 445.59 40.0352C444.799 40.0352 444.069 39.8359 443.401 39.4375C442.739 39.0391 442.215 38.4941 441.828 37.8027C441.441 37.1113 441.248 36.3555 441.248 35.5352C441.248 34.7207 441.441 33.9707 441.828 33.2852C442.215 32.5996 442.739 32.0605 443.401 31.668C444.069 31.2695 444.799 31.0703 445.59 31.0703C446.416 31.0703 447.134 31.2607 447.743 31.6416C448.358 32.0166 448.827 32.5469 449.149 33.2324V31.2373ZM445.836 38.8135C446.791 38.8135 447.582 38.5059 448.209 37.8906C448.836 37.2695 449.149 36.4844 449.149 35.5352C449.149 34.5977 448.836 33.8213 448.209 33.2061C447.582 32.585 446.791 32.2744 445.836 32.2744C444.91 32.2744 444.128 32.5908 443.489 33.2236C442.856 33.8506 442.54 34.6211 442.54 35.5352C442.54 36.4551 442.856 37.2314 443.489 37.8643C444.128 38.4971 444.91 38.8135 445.836 38.8135ZM461.393 27.3965C462.254 27.3965 463.065 27.5547 463.827 27.8711C464.595 28.1816 465.254 28.6123 465.805 29.1631C466.355 29.708 466.789 30.3701 467.105 31.1494C467.428 31.9229 467.589 32.7549 467.589 33.6455C467.589 34.5361 467.428 35.377 467.105 36.168C466.789 36.9531 466.355 37.627 465.805 38.1895C465.254 38.7461 464.595 39.1885 463.827 39.5166C463.065 39.8389 462.254 40 461.393 40H457.49V27.3965H461.393ZM461.463 38.708C462.811 38.708 463.933 38.2275 464.829 37.2666C465.731 36.2998 466.183 35.0928 466.183 33.6455C466.183 32.21 465.734 31.0264 464.838 30.0947C463.947 29.1631 462.822 28.6973 461.463 28.6973H458.835V38.708H461.463ZM477.591 35.3594C477.591 35.623 477.585 35.79 477.573 35.8604H470.243C470.308 36.7979 470.63 37.5537 471.21 38.1279C471.79 38.7021 472.537 38.9893 473.451 38.9893C474.154 38.9893 474.758 38.8311 475.262 38.5146C475.771 38.1924 476.085 37.7646 476.202 37.2314H477.521C477.351 38.1162 476.888 38.8281 476.132 39.3672C475.376 39.9062 474.471 40.1758 473.416 40.1758C472.145 40.1758 471.081 39.7363 470.226 38.8574C469.376 37.9785 468.951 36.8828 468.951 35.5703C468.951 34.3105 469.382 33.2471 470.243 32.3799C471.104 31.5068 472.156 31.0703 473.398 31.0703C474.178 31.0703 474.887 31.2549 475.525 31.624C476.164 31.9873 476.668 32.4971 477.037 33.1533C477.406 33.8096 477.591 34.5449 477.591 35.3594ZM470.305 34.7441H476.185C476.12 34.0176 475.824 33.4229 475.297 32.96C474.775 32.4912 474.125 32.2568 473.346 32.2568C472.572 32.2568 471.91 32.4824 471.359 32.9336C470.809 33.3848 470.457 33.9883 470.305 34.7441ZM483.778 32.4766H481.335V37.0469C481.335 38.2598 481.947 38.8662 483.172 38.8662C483.418 38.8662 483.62 38.8428 483.778 38.7959V40C483.515 40.0586 483.233 40.0879 482.935 40.0879C482.021 40.0879 481.306 39.8359 480.79 39.332C480.274 38.8223 480.017 38.0664 480.017 37.0645V32.4766H478.294V31.2549H480.017V28.8379H481.335V31.2549H483.778V32.4766ZM492.409 31.2549H493.728V40H492.409V37.9697C492.087 38.6729 491.618 39.2178 491.003 39.6045C490.394 39.9854 489.676 40.1758 488.85 40.1758C488.059 40.1758 487.329 39.9736 486.661 39.5693C485.999 39.165 485.475 38.6113 485.088 37.9082C484.701 37.2051 484.508 36.4375 484.508 35.6055C484.508 34.7734 484.701 34.0088 485.088 33.3115C485.475 32.6143 485.999 32.0664 486.661 31.668C487.329 31.2695 488.059 31.0703 488.85 31.0703C489.676 31.0703 490.396 31.2637 491.012 31.6504C491.627 32.0312 492.093 32.5703 492.409 33.2676V31.2549ZM489.096 38.9365C490.051 38.9365 490.842 38.623 491.469 37.9961C492.096 37.3633 492.409 36.5664 492.409 35.6055C492.409 34.6504 492.096 33.8594 491.469 33.2324C490.842 32.6055 490.051 32.292 489.096 32.292C488.17 32.292 487.388 32.6143 486.749 33.2588C486.116 33.9033 485.8 34.6855 485.8 35.6055C485.8 36.543 486.116 37.334 486.749 37.9785C487.388 38.6172 488.17 38.9365 489.096 38.9365ZM496.909 27.4316C497.161 27.4316 497.384 27.5254 497.577 27.7129C497.771 27.9004 497.867 28.1201 497.867 28.3721C497.867 28.6299 497.771 28.8555 497.577 29.0488C497.384 29.2363 497.161 29.3301 496.909 29.3301C496.651 29.3301 496.432 29.2363 496.25 29.0488C496.068 28.8613 495.978 28.6357 495.978 28.3721C495.978 28.1201 496.068 27.9004 496.25 27.7129C496.432 27.5254 496.651 27.4316 496.909 27.4316ZM496.241 31.2549H497.56V40H496.241V31.2549ZM501.444 27.3965V40H500.126V27.3965H501.444ZM506.841 40.1758C505.856 40.1758 505.042 39.9268 504.397 39.4287C503.753 38.9307 503.387 38.2568 503.299 37.4072H504.556C504.614 37.9053 504.849 38.3037 505.259 38.6025C505.669 38.8955 506.179 39.042 506.788 39.042C507.397 39.042 507.887 38.9043 508.256 38.6289C508.631 38.3477 508.818 37.9873 508.818 37.5479C508.818 37.2549 508.742 37.0088 508.59 36.8096C508.438 36.6045 508.235 36.4521 507.983 36.3525C507.737 36.2529 507.456 36.1621 507.14 36.0801C506.823 35.998 506.498 35.9307 506.164 35.8779C505.83 35.8252 505.505 35.7432 505.188 35.6318C504.872 35.5205 504.588 35.3887 504.336 35.2363C504.09 35.0781 503.891 34.8555 503.738 34.5684C503.586 34.2754 503.51 33.9268 503.51 33.5225C503.51 32.8018 503.794 32.2129 504.362 31.7559C504.931 31.2988 505.684 31.0703 506.621 31.0703C507.482 31.0703 508.224 31.2988 508.845 31.7559C509.472 32.207 509.835 32.8135 509.935 33.5752H508.607C508.543 33.165 508.323 32.8281 507.948 32.5645C507.573 32.3008 507.119 32.1689 506.586 32.1689C506.053 32.1689 505.619 32.2861 505.285 32.5205C504.957 32.749 504.793 33.0508 504.793 33.4258C504.793 33.7422 504.89 34 505.083 34.1992C505.282 34.3984 505.537 34.5449 505.848 34.6387C506.158 34.7324 506.501 34.8145 506.876 34.8848C507.257 34.9492 507.635 35.0312 508.01 35.1309C508.391 35.2305 508.736 35.3623 509.047 35.5264C509.357 35.6904 509.609 35.9395 509.803 36.2734C510.002 36.6074 510.102 37.0205 510.102 37.5127C510.102 38.2861 509.791 38.9248 509.17 39.4287C508.555 39.9268 507.778 40.1758 506.841 40.1758Z" fill="#8793B0"/>
<path d="M353.43 42V40.7646L359.349 34.8457C360.144 34.0365 360.731 33.3203 361.11 32.6973C361.49 32.0671 361.68 31.4583 361.68 30.8711C361.68 30.0332 361.386 29.3421 360.799 28.7979C360.212 28.2536 359.47 27.9814 358.575 27.9814C357.537 27.9814 356.695 28.2965 356.051 28.9268C355.413 29.557 355.105 30.402 355.127 31.4619H353.473C353.444 30.4521 353.652 29.557 354.096 28.7764C354.54 27.9958 355.152 27.4014 355.933 26.9932C356.72 26.585 357.608 26.3809 358.597 26.3809C359.979 26.3809 361.121 26.7998 362.023 27.6377C362.926 28.4684 363.377 29.5319 363.377 30.8281C363.377 32.3678 362.432 34.0472 360.541 35.8662L356.029 40.3887H363.57V42H353.43Z" fill="#8793B0"/>
<path d="M221 36.5C220.724 36.5 220.5 36.7239 220.5 37C220.5 37.2761 220.724 37.5 221 37.5V36.5ZM326 37.5C326.276 37.5 326.5 37.2761 326.5 37C326.5 36.7239 326.276 36.5 326 36.5V37.5ZM221 37.5H222.458V36.5H221V37.5ZM225.375 37.5H228.292V36.5H225.375V37.5ZM231.208 37.5H234.125V36.5H231.208V37.5ZM237.042 37.5H239.958V36.5H237.042V37.5ZM242.875 37.5H245.792V36.5H242.875V37.5ZM248.708 37.5H251.625V36.5H248.708V37.5ZM254.542 37.5H257.458V36.5H254.542V37.5ZM260.375 37.5H263.292V36.5H260.375V37.5ZM266.208 37.5H269.125V36.5H266.208V37.5ZM272.042 37.5H274.958V36.5H272.042V37.5ZM277.875 37.5H280.792V36.5H277.875V37.5ZM283.708 37.5H286.625V36.5H283.708V37.5ZM289.542 37.5H292.458V36.5H289.542V37.5ZM295.375 37.5H298.292V36.5H295.375V37.5ZM301.208 37.5H304.125V36.5H301.208V37.5ZM307.042 37.5H309.958V36.5H307.042V37.5ZM312.875 37.5H315.792V36.5H312.875V37.5ZM318.708 37.5H321.625V36.5H318.708V37.5ZM324.542 37.5H326V36.5H324.542V37.5Z" fill="#8793B0"/>
</svg>